#!OML:ASF E:\acrobat2\Project_11_07_03\Capture day 1\Session 1\Acrobat.ASF
:FULLY-SPECIFIED
:DEGREES
1
root 5.01207 18.2837 -16.3825 3.86305 -8.42684 -4.79878
lowerback 0.152505 2.40828 -1.31053
upperback 2.0535 3.28774 -3.935
thorax 2.18377 1.65741 -3.25398
lowerneck 6.29211 4.03239 -0.384051
upperneck -13.0442 5.09178 -2.48438
head -4.89315 2.67682 -1.01127
rclavicle -5.56597e-015 -2.38542e-014
rhumerus -40.6911 -4.01265 -81.0145
rradius 34.402
rwrist 3.2984
rhand 1.47382 -48.5315
rfingers 7.12502
rthumb 27.0013 -76.6217
lclavicle -5.56597e-015 -2.38542e-014
lhumerus -27.671 -7.41215 77.5975
lradius 24.5023
lwrist 10.336
lhand -13.111 -16.2129
lfingers 7.12502
lthumb 12.9862 13.363
rfemur -2.87013 -4.0898 19.4647
rtibia 32.5383
rfoot -10.9855 -6.25023
rtoes 27.9061
lfemur -4.79036 -2.40133 -11.6321
ltibia 2.10185
lfoot -7.0282 6.99837
ltoes 31.25
2
root 5.05689 18.2992 -16.3251 3.6532 -9.35008 -4.94416
lowerback 0.0732879 2.71588 -1.03573
upperback 2.26251 3.71016 -4.09556
thorax 2.4938 1.87783 -3.55602
lowerneck 6.29391 4.10305 -0.71718
upperneck -13.2357 5.20108 -2.08803
head -4.97188 2.72258 -0.845969
rclavicle 7.95139e-016 5.88403e-014
rhumerus -40.4057 -3.83105 -81.1533
rradius 34.5493
rwrist 3.25995
rhand 1.87365 -48.507
rfingers 7.12502
rthumb 27.3837 -76.5373
lclavicle 7.95139e-016 5.88403e-014
lhumerus -27.7169 -7.83948 77.5119
lradius 24.8518
lwrist 10.7661
lhand -13.5136 -16.5955
lfingers 7.12502
lthumb 12.5981 13.0047
rfemur -3.32672 -3.87495 19.0693
rtibia 33.7448
rfoot -11.6705 -12.1497
rtoes 2.77738
lfemur -3.64715 -4.21963 -11.8012
ltibia 1.11257
lfoot -8.9761 8.85597
ltoes 32.2763
3
root 5.09289 18.3097 -16.3006 3.62536 -9.73196 -4.85749
lowerback 0.27013 2.84746 -1.13205
upperback 2.29691 3.884 -4.29398
thorax 2.43683 1.96521 -3.71313
lowerneck 6.53445 4.13468 -0.76455
upperneck -13.6635 5.2473 -1.98129
head -5.14898 2.74304 -0.82164
rclavicle 2.82274e-014 -4.77083e-015
rhumerus -40.2864 -3.73686 -81.2767
rradius 34.6791
rwrist 3.34761
rhand 1.93039 -48.2875
rfingers 7.12502
rthumb 27.438 -76.3092
lclavicle 2.82274e-014 -4.77083e-015
lhumerus -27.7522 -8.00538 77.376
lradius 24.9465
lwrist 11.0657
lhand -14.124 -17.9496
lfingers 7.12502
lthumb 12.0096 11.6858
rfemur -4.17555 -4.13237 18.5343
rtibia 35.0761
rfoot -10.3855 -11.9457
rtoes 4.13517
lfemur -3.2006 -5.1269 -12.1649
ltibia 0.575582
lfoot -9.91988 9.66697
ltoes 33.3675
4
root 5.09264 18.2998 -16.3325 4.3417 -9.43734 -5.05061
lowerback 0.342065 2.73004 -1.54517
upperback 2.12202 3.71792 -4.25737
thorax 2.17687 1.87137 -3.45573
lowerneck 6.40294 4.15679 -0.827248
upperneck -13.8375 5.28075 -1.91269
head -5.18413 2.75891 -0.792258
rclavicle -1.23246e-014 -1.27222e-014
rhumerus -40.109 -3.43581 -81.4018
rradius 35.0256
rwrist 3.33239
rhand 1.97419 -48.2999
rfingers 7.12502
rthumb 27.4799 -76.315
lclavicle -1.23246e-014 -1.27222e-014
lhumerus -27.3799 -7.79582 77.1306
lradius 24.8301
lwrist 10.7298
lhand -13.8221 -17.4267
lfingers 7.12502
lthumb 12.3006 12.1915
rfemur -5.95938 -4.62175 18.9043
rtibia 36.585
rfoot -9.62754 -11.5543
rtoes 7.38972
lfemur -4.37556 -3.43768 -11.7031
ltibia 1.07177
lfoot -8.48406 8.46925
ltoes 32.864
5
root 5.1102 18.2993 -16.334 4.68183 -9.52434 -5.13959
lowerback 0.40327 2.74198 -1.77075
upperback 2.08133 3.73071 -4.31089
thorax 2.09051 1.87352 -3.38908
lowerneck 6.41266 4.18974 -0.944207
upperneck -14.077 5.32765 -1.79293
head -5.26666 2.78109 -0.743849
rclavicle -2.5842e-014 5.24792e-014
rhumerus -39.9243 -3.14817 -81.5261
rradius 35.3055
rwrist 3.34339
rhand 2.09068 -48.2481
rfingers 7.12502
rthumb 27.5913 -76.2454
lclavicle -2.5842e-014 5.24792e-014
lhumerus -27.1949 -7.80939 76.9568
lradius 24.8457
lwrist 10.7312
lhand -13.9311 -17.6921
lfingers 7.12502
lthumb 12.1955 11.9324
rfemur -7.2495 -4.9194 18.8807
rtibia 37.9779
rfoot -8.85201 -11.9895
rtoes 6.19912
lfemur -4.69124 -3.22441 -11.6149
ltibia 1.00689
lfoot -8.39805 8.42922
ltoes 33.1308
6
root 5.12657 18.2976 -16.3386 5.02654 -9.57349 -5.21519
lowerback 0.475289 2.73625 -2.01799
upperback 2.03843 3.71878 -4.35924
thorax 1.99292 1.86306 -3.30612
lowerneck 6.4288 4.21597 -1.03261
upperneck -14.3243 5.36165 -1.7243
head -5.35066 2.79889 -0.715266
rclavicle 3.22031e-014 -7.79236e-014
rhumerus -39.7358 -2.82203 -81.6605
rradius 35.6051
rwrist 3.35993
rhand 2.17632 -48.1918
rfingers 7.12502
rthumb 27.6732 -76.1761
lclavicle 3.22031e-014 -7.79236e-014
lhumerus -26.9936 -7.80749 76.776
lradius 24.8412
lwrist 10.7298
lhand -14.0137 -17.9267
lfingers 7.12502
lthumb 12.1159 11.7025
rfemur -8.55349 -5.23982 18.8676
rtibia 39.3697
rfoot -8.09499 -11.9245
rtoes 6.69132
lfemur -5.04801 -2.9776 -11.5343
ltibia 0.972195
lfoot -8.25281 8.34731
ltoes 33.3128
7
root 5.14424 18.2959 -16.3412 5.30716 -9.66464 -5.27863
lowerback 0.567305 2.74463 -2.23629
upperback 2.0153 3.72508 -4.41942
thorax 1.90807 1.86266 -3.25191
lowerneck 6.4714 4.23325 -1.09333
upperneck -14.5897 5.38091 -1.6936
head -5.44319 2.81066 -0.702889
rclavicle 4.37326e-015 2.38542e-014
rhumerus -39.543 -2.48374 -81.8112
rradius 35.9097
rwrist 3.38125
rhand 2.23574 -48.1282
rfingers 7.12502
rthumb 27.73 -76.1033
lclavicle 4.37326e-015 2.38542e-014
lhumerus -26.7993 -7.84336 76.59
lradius 24.8468
lwrist 10.7657
lhand -14.0816 -18.0855
lfingers 7.12502
lthumb 12.0504 11.5476
rfemur -9.76782 -5.53758 18.8264
rtibia 40.7322
rfoot -7.42719 -11.8067
rtoes 6.73637
lfemur -5.28818 -2.87907 -11.4896
ltibia 0.877176
lfoot -8.23546 8.39879
ltoes 33.4217
